<svg viewBox="0 0 1000 1000" xmlns="http://www.w3.org/2000/svg">
  <!-- Background gradient -->
  <defs>
    <linearGradient id="bg" x1="0%" y1="0%" x2="100%" y2="100%">
      <stop offset="0%" style="stop-color:#667eea;stop-opacity:1" />
      <stop offset="100%" style="stop-color:#764ba2;stop-opacity:1" />
    </linearGradient>
    
    <filter id="textShadow">
      <feDropShadow dx="2" dy="2" stdDeviation="4" flood-color="rgba(0,0,0,0.5)"/>
    </filter>
  </defs>
  
  <!-- Background -->
  <rect width="100%" height="100%" fill="url(#bg)" opacity="0.8"/>
  
  <!-- Decorative elements -->
  <circle cx="150" cy="150" r="80" fill="rgba(255,255,255,0.1)" stroke="rgba(255,255,255,0.3)" stroke-width="2"/>
  <circle cx="850" cy="850" r="120" fill="rgba(255,255,255,0.05)" stroke="rgba(255,255,255,0.2)" stroke-width="3"/>
  
  <!-- Main content area -->
  <g transform="translate(500, 500)">
    <!-- Artist name -->
    <text x="0" y="-100" text-anchor="middle" 
          font-family="Arial, sans-serif" 
          font-size="64" 
          font-weight="bold" 
          fill="white" 
          filter="url(#textShadow)">
      {{artistName}}
    </text>
    
    <!-- Album name -->
    <text x="0" y="50" text-anchor="middle" 
          font-family="Arial, sans-serif" 
          font-size="48" 
          font-weight="300" 
          fill="rgba(255,255,255,0.9)" 
          filter="url(#textShadow)">
      {{albumName}}
    </text>
    
    <!-- Decorative line -->
    <line x1="-200" y1="120" x2="200" y2="120" stroke="rgba(255,255,255,0.7)" stroke-width="2"/>
  </g>
  
  <!-- Corner decorations -->
  <polygon points="50,50 150,50 150,80 80,80 80,150 50,150" fill="rgba(255,255,255,0.3)"/>
  <polygon points="950,50 850,50 850,80 920,80 920,150 950,150" fill="rgba(255,255,255,0.3)"/>
  <polygon points="50,950 150,950 150,920 80,920 80,850 50,850" fill="rgba(255,255,255,0.3)"/>
  <polygon points="950,950 850,950 850,920 920,920 920,850 950,850" fill="rgba(255,255,255,0.3)"/>
</svg>